<svg width="171" height="38" viewBox="0 0 171 38" fill="none" xmlns="http://www.w3.org/2000/svg">
<g clip-path="url(#clip0_2_28)">
<path d="M113.825 15.211L117.698 21.087H117.782L121.692 15.151V24.217H124.725V10.33H121.428L117.782 16.206L114.137 10.33H110.839V24.217H113.837V15.21H113.825V15.211ZM146.898 10.331H143.84V24.217H146.898V10.33V10.331ZM155.053 15.391L161.78 24.217H164.382V10.33H161.36V18.88L154.849 10.33H152.031V24.217H155.041V15.39L155.053 15.391ZM132.723 24.217H135.782V13.148H140.003V10.33H128.491V13.148H132.711V24.217H132.723ZM81.2559 15.39L87.9829 24.216H90.5859V10.33H87.5639V18.88L81.0519 10.33H78.2339V24.217H81.2439V15.39H81.2559ZM106.259 21.506H98.7159V18.592H105.264V15.87H98.7159V13.052H106.151V10.33H95.6699V24.217H106.246V21.495L106.258 21.507L106.259 21.506ZM170.127 32.814C163.16 21.554 90.4299 30.416 74.4449 31.939C72.8499 32.19 72.4539 31.027 72.3459 29.492C72.2379 27.982 72.2859 26.446 72.2139 24.935C72.1659 23.952 72.1059 22.957 71.8539 22.009C71.3269 20.079 69.7799 19.323 67.9329 20.055C67.1059 20.379 66.3139 20.87 65.5709 21.362C63.5679 22.693 61.9969 24.516 60.3779 26.267C60.0299 26.65 59.6709 27.034 59.1549 27.597C59.3349 25.319 60.1499 23.544 60.9899 21.757C61.3369 21.014 61.7329 20.295 62.0449 19.527C62.4289 18.58 61.8169 17.62 60.8339 17.584C60.2459 17.56 59.8739 17.896 59.5139 18.34C58.5909 19.491 57.7039 20.702 56.6369 21.71C53.9029 24.264 50.7249 26.159 47.1989 27.418C46.1189 27.801 44.9809 28.065 43.8529 28.198C42.7139 28.329 41.5749 28.173 40.7229 26.998C41.4429 26.698 42.0669 26.434 42.7029 26.158C45.0889 25.139 47.4629 24.12 49.4419 22.358C50.9649 21.002 51.7079 19.383 51.4799 17.321C51.2879 15.498 50.3529 14.299 48.6499 13.639C46.8399 12.944 45.1369 13.339 43.5539 14.227C39.7639 16.349 37.5099 19.575 36.9579 23.928C36.9219 24.252 36.8859 24.564 36.8499 24.948C36.4299 25.055 36.0469 25.151 35.5909 25.259C35.5069 24.875 35.4229 24.564 35.3629 24.252C35.1349 23.017 34.6079 21.902 33.8399 20.918C32.6289 19.359 31.0579 18.244 29.2829 17.417C28.8999 17.237 28.5279 17.057 28.0599 16.829C29.5829 15.749 30.9859 14.814 32.3299 13.795C33.9839 12.548 35.4109 11.073 36.4899 9.28596C38.1929 6.46796 37.5339 3.09796 34.0799 1.64696C32.0039 0.772963 29.8339 0.352963 27.6149 0.184963C23.1299 -0.162037 18.6579 -0.0300369 14.2099 0.664963C10.8279 1.20496 7.50589 1.97196 4.36389 3.37496C3.35689 3.83096 2.37389 4.36996 1.47389 5.01796C0.358891 5.82096 0.178891 7.09296 1.05389 8.14796C1.52189 8.72296 2.24189 9.11896 2.90089 9.50296C3.27289 9.71896 3.69289 9.63496 4.00489 9.25096C4.26789 8.91496 4.24489 8.57996 4.05189 8.21996C3.84889 7.83596 3.66889 7.43996 3.42889 6.93696C4.48389 6.43296 5.41889 5.90496 6.41489 5.53396C13.8129 2.67996 21.4759 2.33196 29.2459 3.22996C30.6009 3.38596 31.9329 3.66196 33.1439 4.32096C34.6069 5.11296 34.9419 6.10796 34.1869 7.58296C33.5629 8.81796 32.6159 9.78996 31.5729 10.677C29.401 12.5067 27.0509 14.1138 24.5579 15.474C24.2099 15.666 23.8019 15.834 23.4059 15.846C21.8229 15.918 20.2279 15.918 18.5619 15.954C18.5619 15.87 18.5019 15.666 18.5019 15.474C18.5499 14.107 18.7289 12.776 19.3169 11.517C19.6409 10.809 19.5209 10.293 19.0409 9.99396C18.5609 9.70596 18.0219 9.83796 17.5539 10.449C17.3019 10.773 17.0389 11.121 16.9189 11.505C16.4269 13.064 15.9469 14.635 15.5759 16.229C15.3959 16.985 15.2159 17.596 14.4599 17.992C13.6569 18.412 12.9849 19.035 12.5899 19.899C11.9179 21.398 12.6499 22.657 14.2929 22.777C14.6529 22.801 15.0119 22.813 15.4079 22.825C15.5279 23.496 15.5879 24.12 15.7439 24.708C15.9709 25.595 16.7269 26.231 17.6019 26.278C18.4539 26.326 19.1249 25.967 19.5689 25.248C19.9529 24.648 19.8809 23.988 19.7009 23.341C19.5209 22.681 19.3289 22.021 19.1369 21.314C20.5039 20.678 21.8229 20.187 23.0109 19.467C24.0059 18.856 24.9289 18.916 25.9489 19.215C28.0349 19.827 29.9289 20.762 31.3689 22.465C32.1839 23.436 32.6519 24.528 32.4959 25.919C31.2489 26.135 30.0379 26.35 28.8259 26.566C25.9489 27.07 23.0709 27.538 20.2039 28.077C18.4659 28.401 16.7629 28.917 15.2399 29.864C12.6499 31.483 12.4339 34.517 14.7719 36.496C15.9829 37.526 17.4459 37.886 19.0049 37.959C22.3749 38.114 25.5169 37.263 28.5509 35.884C30.4689 35.009 32.0409 33.714 33.2039 31.951C33.7909 31.063 34.2339 30.08 34.7739 29.169C34.9539 28.869 35.1939 28.509 35.4819 28.413C36.2019 28.161 36.9689 28.053 37.7119 27.885C38.8279 29.6 40.2069 30.799 42.1979 30.991C43.3249 31.099 44.5119 31.063 45.6279 30.835C48.8049 30.175 51.6589 28.701 54.3929 26.986C54.8969 26.674 55.3889 26.35 56.0599 25.919C55.9879 26.422 55.9279 26.662 55.9399 26.902C55.9879 27.837 55.9399 28.809 56.1319 29.708C56.5639 31.615 58.2789 32.286 59.9329 31.243C60.5569 30.859 61.1089 30.332 61.6129 29.804C62.8709 28.497 64.0469 27.13 65.3179 25.834C66.3489 24.78 67.4279 23.76 69.0109 23.064C69.1069 23.664 69.2149 24.096 69.2509 24.54C69.4069 26.219 69.4669 27.91 69.7309 29.576C69.8749 30.536 70.2339 31.483 70.6779 32.346C71.2659 33.486 72.2729 34.049 73.6159 34.013C73.6519 34.013 121.584 30.056 145.459 30.703C151.299 30.979 157.247 31.243 162.859 32.743C164.25 33.15 166.265 33.797 166.913 34.901C168.363 37.023 171.518 34.937 170.174 32.778L170.127 32.814ZM28.3599 32.647C25.4939 34.29 22.4239 35.261 19.0659 34.997C18.4189 34.95 17.7829 34.722 17.1599 34.53C16.6079 34.362 16.1999 33.978 16.1519 33.403C16.1039 32.839 16.5359 32.479 16.9919 32.299C18.0109 31.879 19.0419 31.388 20.1099 31.184C23.6599 30.501 27.2329 29.925 30.7939 29.325C30.9379 29.301 31.0939 29.337 31.4059 29.361C30.5899 30.776 29.6429 31.904 28.3599 32.647ZM39.9439 23.857C39.9439 22.682 40.4719 21.795 40.9639 20.895C41.6847 19.5465 42.6961 18.3749 43.9249 17.465C44.5729 16.985 45.3399 16.638 46.1199 16.398C46.9709 16.134 48.0869 16.53 48.3139 17.118C48.6259 17.921 48.6259 18.748 48.0389 19.444C47.7269 19.816 47.3789 20.188 46.9829 20.475C44.9689 21.938 42.7499 22.994 40.4229 23.857C40.3159 23.893 40.1829 23.857 39.9559 23.857H39.9439Z" fill="#001F4D"/>
</g>
<defs>
<clipPath id="clip0_2_28">
<rect width="170" height="38" fill="white" transform="translate(0.5)"/>
</clipPath>
</defs>
</svg>
